<svg width="204" height="40" viewBox="0 0 204 40" fill="none" xmlns="http://www.w3.org/2000/svg">
<path d="M17.2073 8.00871C17.9585 8.00871 18.5798 8.26986 19.0711 8.79217C19.5623 9.28545 19.8079 9.90933 19.8079 10.6638V29.1621C19.8079 31.8317 19.3022 33.9499 18.2909 35.5169C17.3084 37.1128 15.9792 38.259 14.3033 38.9554C12.6273 39.6518 10.7492 40 8.66864 40C7.74399 40 6.76154 39.9274 5.7213 39.7824C4.68107 39.6373 3.82866 39.4197 3.16405 39.1295C2.29719 38.7522 1.69038 38.2735 1.34364 37.6931C1.02579 37.1418 0.968004 36.547 1.17027 35.9086C1.43032 35.0671 1.84931 34.4867 2.42722 34.1676C3.00514 33.8774 3.61194 33.8484 4.24763 34.0805C4.70997 34.2256 5.31677 34.4432 6.06805 34.7334C6.81934 35.0526 7.6862 35.2122 8.66864 35.2122C9.99781 35.2122 11.0959 35.0236 11.9628 34.6464C12.8585 34.2982 13.5231 33.6888 13.9566 32.8183C14.4188 31.9768 14.6501 30.8161 14.6501 29.3362V26.42L15.5603 27.4646C15.069 28.4222 14.4477 29.2201 13.6965 29.8585C12.9741 30.4679 12.1072 30.9322 11.0959 31.2514C10.0845 31.5705 8.9287 31.7301 7.62841 31.7301C6.09695 31.7301 4.75331 31.3819 3.59749 30.6855C2.47056 29.9601 1.58925 28.9736 0.953549 27.7258C0.317851 26.4491 0 24.9982 0 23.3732V10.6638C0 9.90933 0.245612 9.28545 0.736833 8.79217C1.22806 8.26986 1.84931 8.00871 2.60059 8.00871C3.35188 8.00871 3.97313 8.26986 4.46435 8.79217C4.95558 9.28545 5.20119 9.90933 5.20119 10.6638V21.8063C5.20119 23.6924 5.60573 25.0272 6.4148 25.8107C7.25277 26.5651 8.40858 26.9423 9.8823 26.9423C10.8936 26.9423 11.7461 26.7538 12.4395 26.3765C13.133 25.9703 13.6676 25.3899 14.0432 24.6355C14.4188 23.852 14.6067 22.9089 14.6067 21.8063V10.6638C14.6067 9.90933 14.8523 9.28545 15.3435 8.79217C15.8347 8.26986 16.4559 8.00871 17.2073 8.00871ZM46.9854 19.6736C46.9854 22.053 46.4509 24.1567 45.3817 25.9848C44.3415 27.7838 42.9256 29.1912 41.1341 30.2067C39.3714 31.2223 37.3921 31.7301 35.1961 31.7301C33 31.7301 31.0062 31.2223 29.2147 30.2067C27.452 29.1912 26.0362 27.7838 24.9671 25.9848C23.9268 24.1567 23.4067 22.053 23.4067 19.6736C23.4067 17.2941 23.9268 15.2049 24.9671 13.4059C26.0362 11.5778 27.452 10.1559 29.2147 9.14037C31.0062 8.09576 33 7.57345 35.1961 7.57345C37.3921 7.57345 39.3714 8.09576 41.1341 9.14037C42.9256 10.1559 44.3415 11.5778 45.3817 13.4059C46.4509 15.2049 46.9854 17.2941 46.9854 19.6736ZM41.7842 19.6736C41.7842 18.1937 41.4808 16.917 40.874 15.8433C40.2961 14.7407 39.5014 13.8847 38.4901 13.2753C37.5077 12.6659 36.4097 12.3613 35.1961 12.3613C33.9824 12.3613 32.8699 12.6659 31.8586 13.2753C30.8761 13.8847 30.0816 14.7407 29.4747 15.8433C28.8969 16.917 28.6079 18.1937 28.6079 19.6736C28.6079 21.1244 28.8969 22.4012 29.4747 23.5038C30.0816 24.5775 30.8761 25.4189 31.8586 26.0283C32.8699 26.6377 33.9824 26.9423 35.1961 26.9423C36.4097 26.9423 37.5077 26.6377 38.4901 26.0283C39.5014 25.4189 40.2961 24.5775 40.874 23.5038C41.4808 22.4012 41.7842 21.1244 41.7842 19.6736ZM51.0607 8.44396H61.333C62.0265 8.44396 62.6044 8.6761 63.0668 9.14037C63.5291 9.60465 63.7603 10.185 63.7603 10.8814C63.7603 11.5488 63.5291 12.1146 63.0668 12.5789C62.6044 13.0141 62.0265 13.2318 61.333 13.2318H51.0607C50.3672 13.2318 49.7893 12.9997 49.327 12.5354C48.8646 12.0711 48.6335 11.4908 48.6335 10.7943C48.6335 10.127 48.8646 9.57563 49.327 9.14037C49.7893 8.6761 50.3672 8.44396 51.0607 8.44396ZM55.6984 3.00327C56.4497 3.00327 57.0565 3.26442 57.5188 3.78673C58.01 4.28001 58.2557 4.90389 58.2557 5.65833V25.0272C58.2557 25.4334 58.3279 25.7671 58.4724 26.0283C58.6457 26.2894 58.8625 26.478 59.1225 26.5941C59.4115 26.7102 59.7149 26.7682 60.0327 26.7682C60.3795 26.7682 60.6973 26.7102 60.9863 26.5941C61.2753 26.4491 61.6075 26.3765 61.9832 26.3765C62.3877 26.3765 62.7489 26.5651 63.0668 26.9423C63.4135 27.3196 63.5869 27.8419 63.5869 28.5092C63.5869 29.3218 63.139 29.9891 62.2432 30.5114C61.3764 31.0337 60.4372 31.2949 59.4259 31.2949C58.8191 31.2949 58.14 31.2514 57.3888 31.1643C56.6664 31.0482 55.9729 30.8016 55.3083 30.4244C54.6726 30.0182 54.1381 29.4088 53.7046 28.5963C53.2712 27.7838 53.0545 26.6667 53.0545 25.2448V5.65833C53.0545 4.90389 53.3001 4.28001 53.7913 3.78673C54.3114 3.26442 54.9472 3.00327 55.6984 3.00327ZM78.5098 31.7301C76.0537 31.7301 73.9155 31.2223 72.0951 30.2067C70.3035 29.1621 68.9165 27.7548 67.9341 25.9848C66.9806 24.2147 66.5038 22.2125 66.5038 19.9782C66.5038 17.3667 67.0239 15.1469 68.0641 13.3188C69.1332 11.4617 70.5202 10.0399 72.2251 9.05332C73.9299 8.06674 75.7359 7.57345 77.643 7.57345C79.1167 7.57345 80.5036 7.87813 81.8039 8.48749C83.1331 9.09685 84.3033 9.93834 85.3147 11.012C86.326 12.0566 87.1206 13.2753 87.6986 14.6681C88.3054 16.0609 88.6088 17.5408 88.6088 19.1077C88.5799 19.8041 88.3054 20.37 87.7853 20.8052C87.2652 21.2405 86.6584 21.4581 85.9649 21.4581H69.4078L68.1075 17.1056H84.0144L83.0609 17.9761V16.8009C83.003 15.9594 82.6996 15.2049 82.1507 14.5375C81.6306 13.8702 80.9659 13.3479 80.1569 12.9706C79.3767 12.5644 78.5387 12.3613 77.643 12.3613C76.7761 12.3613 75.967 12.4774 75.2158 12.7095C74.4644 12.9416 73.8143 13.3333 73.2653 13.8847C72.7163 14.436 72.2828 15.176 71.965 16.1045C71.6471 17.033 71.4883 18.2082 71.4883 19.63C71.4883 21.197 71.8061 22.5318 72.4418 23.6344C73.1064 24.708 73.9443 25.535 74.9557 26.1153C75.9959 26.6667 77.0939 26.9423 78.2498 26.9423C79.3189 26.9423 80.1713 26.8553 80.807 26.6812C81.4427 26.5071 81.9484 26.3039 82.3241 26.0718C82.7286 25.8107 83.0897 25.593 83.4076 25.4189C83.9278 25.1578 84.4189 25.0272 84.8813 25.0272C85.5169 25.0272 86.0371 25.2448 86.4417 25.6801C86.8751 26.1153 87.0918 26.6232 87.0918 27.2035C87.0918 27.9869 86.6872 28.6978 85.8782 29.3362C85.1269 29.9746 84.0722 30.5405 82.7141 31.0337C81.356 31.498 79.9546 31.7301 78.5098 31.7301ZM111.57 7.57345C112.321 7.57345 112.942 7.8201 113.434 8.31339C113.925 8.80667 114.171 9.44505 114.171 10.2285V28.6398C114.171 29.3942 113.925 30.0326 113.434 30.555C112.942 31.0482 112.321 31.2949 111.57 31.2949C110.818 31.2949 110.197 31.0482 109.706 30.555C109.214 30.0326 108.969 29.3942 108.969 28.6398V26.5071L109.923 26.8988C109.923 27.2761 109.72 27.7403 109.316 28.2916C108.911 28.8139 108.363 29.3362 107.669 29.8585C106.976 30.3808 106.152 30.8306 105.199 31.2078C104.273 31.556 103.262 31.7301 102.165 31.7301C100.171 31.7301 98.3647 31.2223 96.7465 30.2067C95.1284 29.1621 93.8425 27.7403 92.8889 25.9412C91.9643 24.1132 91.5019 22.0239 91.5019 19.6736C91.5019 17.2941 91.9643 15.2049 92.8889 13.4059C93.8425 11.5778 95.1139 10.1559 96.7031 9.14037C98.2924 8.09576 100.055 7.57345 101.991 7.57345C103.233 7.57345 104.375 7.76206 105.415 8.13928C106.456 8.51651 107.351 8.99528 108.103 9.57563C108.883 10.1559 109.474 10.7508 109.88 11.3602C110.313 11.9405 110.53 12.4338 110.53 12.84L108.969 13.4059V10.2285C108.969 9.47406 109.214 8.8502 109.706 8.35691C110.197 7.8346 110.818 7.57345 111.57 7.57345ZM102.815 26.9423C104.086 26.9423 105.199 26.6232 106.152 25.9848C107.106 25.3464 107.843 24.4758 108.363 23.3732C108.911 22.2706 109.186 21.0373 109.186 19.6736C109.186 18.2807 108.911 17.033 108.363 15.9304C107.843 14.8277 107.106 13.9572 106.152 13.3188C105.199 12.6804 104.086 12.3613 102.815 12.3613C101.572 12.3613 100.474 12.6804 99.5204 13.3188C98.5669 13.9572 97.8156 14.8277 97.2666 15.9304C96.7465 17.033 96.4864 18.2807 96.4864 19.6736C96.4864 21.0373 96.7465 22.2706 97.2666 23.3732C97.8156 24.4758 98.5669 25.3464 99.5204 25.9848C100.474 26.6232 101.572 26.9423 102.815 26.9423ZM119.598 8.00871C120.147 8.00871 120.652 8.15379 121.115 8.44396C121.577 8.70512 121.924 9.11135 122.155 9.66268L128.526 24.2873L127.573 24.7225L134.074 9.7062C134.565 8.54552 135.331 7.9942 136.371 8.05223C137.094 8.05223 137.672 8.28436 138.105 8.74864C138.568 9.1839 138.799 9.73522 138.799 10.4026C138.799 10.6058 138.755 10.8234 138.669 11.0555C138.611 11.2876 138.539 11.5052 138.452 11.7084L130.347 29.6409C129.884 30.6855 129.147 31.2369 128.136 31.2949C127.587 31.3819 127.053 31.2804 126.533 30.9902C126.042 30.7 125.666 30.2503 125.406 29.6409L117.344 11.7084C117.286 11.5633 117.214 11.3747 117.127 11.1425C117.07 10.9104 117.04 10.6347 117.04 10.3156C117.04 9.79325 117.271 9.28545 117.734 8.79217C118.197 8.26986 118.817 8.00871 119.598 8.00871ZM147.056 28.6398C147.056 29.3942 146.811 30.0326 146.319 30.555C145.828 31.0482 145.207 31.2949 144.455 31.2949C143.705 31.2949 143.084 31.0482 142.592 30.555C142.101 30.0326 141.855 29.3942 141.855 28.6398V10.6638C141.855 9.90933 142.101 9.28545 142.592 8.79217C143.084 8.26986 143.705 8.00871 144.455 8.00871C145.207 8.00871 145.828 8.26986 146.319 8.79217C146.811 9.28545 147.056 9.90933 147.056 10.6638V28.6398ZM144.412 5.17954C143.43 5.17954 142.737 5.01995 142.332 4.70076C141.927 4.38158 141.725 3.81575 141.725 3.00327V2.17628C141.725 1.33479 141.942 0.768953 142.375 0.478783C142.838 0.159594 143.531 0 144.455 0C145.467 0 146.175 0.159594 146.579 0.478783C146.984 0.79797 147.186 1.3638 147.186 2.17628V3.00327C147.186 3.84476 146.969 4.42509 146.536 4.74429C146.103 5.03446 145.395 5.17954 144.412 5.17954ZM150.322 27.6823C150.033 27.2761 149.903 26.7538 149.932 26.1153C149.96 25.4769 150.336 24.9257 151.059 24.4614C151.52 24.1712 152.012 24.0552 152.532 24.1132C153.053 24.1422 153.558 24.4034 154.049 24.8966C154.887 25.7381 155.768 26.391 156.693 26.8553C157.618 27.3196 158.774 27.5517 160.161 27.5517C160.594 27.5226 161.071 27.4646 161.591 27.3776C162.111 27.2615 162.559 27.0294 162.935 26.6812C163.339 26.3039 163.542 25.7381 163.542 24.9837C163.542 24.3453 163.325 23.8375 162.891 23.4603C162.458 23.083 161.879 22.7639 161.158 22.5027C160.464 22.2416 159.684 21.9949 158.817 21.7628C157.921 21.5016 156.997 21.2114 156.043 20.8923C155.118 20.5731 154.266 20.1668 153.486 19.6736C152.706 19.1513 152.07 18.4693 151.579 17.6279C151.087 16.7864 150.842 15.7272 150.842 14.4505C150.842 12.9997 151.246 11.7664 152.056 10.7508C152.864 9.73522 153.904 8.95176 155.176 8.40044C156.477 7.84911 157.834 7.57345 159.251 7.57345C160.146 7.57345 161.085 7.68952 162.068 7.92166C163.05 8.12478 163.989 8.47298 164.885 8.96627C165.78 9.43054 166.532 10.0544 167.139 10.8379C167.457 11.2731 167.644 11.7954 167.703 12.4048C167.76 13.0141 167.486 13.5655 166.879 14.0588C166.446 14.407 165.94 14.5666 165.362 14.5375C164.783 14.4795 164.307 14.2764 163.932 13.9282C163.44 13.2898 162.776 12.782 161.938 12.4048C161.128 12.0275 160.189 11.839 159.121 11.839C158.687 11.839 158.21 11.897 157.69 12.0131C157.198 12.1001 156.765 12.3177 156.39 12.6659C156.014 12.9851 155.827 13.5074 155.827 14.2329C155.827 14.9002 156.043 15.4371 156.477 15.8433C156.91 16.2206 157.488 16.5397 158.21 16.8009C158.961 17.033 159.756 17.2652 160.594 17.4973C161.461 17.7294 162.342 18.0051 163.238 18.3243C164.133 18.6434 164.957 19.0642 165.709 19.5865C166.46 20.1088 167.067 20.7907 167.529 21.6322C167.991 22.4447 168.223 23.4893 168.223 24.7661C168.223 26.2459 167.789 27.5082 166.922 28.5528C166.056 29.5974 164.972 30.3953 163.672 30.9467C162.371 31.469 161.042 31.7301 159.684 31.7301C157.979 31.7301 156.274 31.4399 154.57 30.8596C152.864 30.2503 151.449 29.1912 150.322 27.6823ZM194.333 19.6736C194.333 22.053 193.798 24.1567 192.73 25.9848C191.69 27.7838 190.273 29.1912 188.482 30.2067C186.719 31.2223 184.739 31.7301 182.544 31.7301C180.348 31.7301 178.354 31.2223 176.563 30.2067C174.8 29.1912 173.384 27.7838 172.315 25.9848C171.275 24.1567 170.755 22.053 170.755 19.6736C170.755 17.2941 171.275 15.2049 172.315 13.4059C173.384 11.5778 174.8 10.1559 176.563 9.14037C178.354 8.09576 180.348 7.57345 182.544 7.57345C184.739 7.57345 186.719 8.09576 188.482 9.14037C190.273 10.1559 191.69 11.5778 192.73 13.4059C193.798 15.2049 194.333 17.2941 194.333 19.6736ZM189.132 19.6736C189.132 18.1937 188.829 16.917 188.222 15.8433C187.643 14.7407 186.849 13.8847 185.838 13.2753C184.855 12.6659 183.758 12.3613 182.544 12.3613C181.33 12.3613 180.218 12.6659 179.207 13.2753C178.224 13.8847 177.43 14.7407 176.823 15.8433C176.244 16.917 175.956 18.1937 175.956 19.6736C175.956 21.1244 176.244 22.4012 176.823 23.5038C177.43 24.5775 178.224 25.4189 179.207 26.0283C180.218 26.6377 181.33 26.9423 182.544 26.9423C183.758 26.9423 184.855 26.6377 185.838 26.0283C186.849 25.4189 187.643 24.5775 188.222 23.5038C188.829 22.4012 189.132 21.1244 189.132 19.6736ZM201.139 21.6757C200.157 21.6757 199.622 21.1244 199.536 20.0218L198.279 4.00435C198.22 3.10482 198.452 2.35038 198.972 1.74102C199.521 1.13167 200.229 0.826986 201.096 0.826986C201.963 0.826986 202.67 1.13167 203.22 1.74102C203.768 2.35038 204 3.10482 203.913 4.00435L202.7 20.0218C202.613 21.1244 202.093 21.6757 201.139 21.6757ZM200.836 31.2949C199.997 31.2949 199.347 31.0773 198.885 30.642C198.452 30.1777 198.235 29.5248 198.235 28.6834V27.9434C198.235 27.102 198.452 26.4635 198.885 26.0283C199.347 25.564 199.997 25.3319 200.836 25.3319H201.399C202.237 25.3319 202.873 25.564 203.307 26.0283C203.768 26.4635 204 27.102 204 27.9434V28.6834C204 29.5248 203.768 30.1777 203.307 30.642C202.873 31.0773 202.237 31.2949 201.399 31.2949H200.836Z" fill="#E53857"/>
</svg>
